<svg id="Group_34452" data-name="Group 34452" xmlns="http://www.w3.org/2000/svg" xmlns:xlink="http://www.w3.org/1999/xlink" width="56.269" height="16.191" viewBox="0 0 56.269 16.191">
  <defs>
    <linearGradient id="linear-gradient" y1="0.5" x2="1" y2="0.5" gradientUnits="objectBoundingBox">
      <stop offset="0" stop-color="#fdb913"/>
      <stop offset="1" stop-color="#df5326"/>
    </linearGradient>
    <linearGradient id="linear-gradient-2" x1="0" y1="0.5" x2="1" y2="0.5" xlink:href="#linear-gradient"/>
    <linearGradient id="linear-gradient-3" x1="-0.199" y1="0.345" x2="1.024" y2="0.596" xlink:href="#linear-gradient"/>
    <linearGradient id="linear-gradient-4" x1="0.018" y1="0.974" x2="1.047" y2="0.108" gradientUnits="objectBoundingBox">
      <stop offset="0" stop-color="#df5326"/>
      <stop offset="1" stop-color="#fdb913"/>
    </linearGradient>
    <linearGradient id="linear-gradient-5" x1="-10.833" y1="41.42" x2="-9.833" y2="41.42" xlink:href="#linear-gradient"/>
    <linearGradient id="linear-gradient-6" x1="-8.921" y1="21.082" x2="-8.194" y2="21.082" xlink:href="#linear-gradient"/>
    <linearGradient id="linear-gradient-7" x1="-11.585" y1="29.107" x2="-10.809" y2="29.107" xlink:href="#linear-gradient"/>
  </defs>
  <path id="Path_244" data-name="Path 244" d="M704.929,53.342h2.179l-.585-8.051h-1.009Z" transform="translate(-681.219 -37.404)"/>
  <path id="Path_245" data-name="Path 245" d="M712.173,45.291h-2.236l.585,8.051h1.066Z" transform="translate(-684.066 -37.404)"/>
  <path id="Path_246" data-name="Path 246" d="M710.333,32.016h-.022a2.32,2.32,0,1,1-.575,4.572l.033.444a2.54,2.54,0,1,0,.564-5.016Z" transform="translate(-683.952 -29.857)"/>
  <path id="Path_247" data-name="Path 247" d="M705.4,35.1a2.281,2.281,0,0,1,.785-1.789,2.539,2.539,0,0,0,.441,4.248l-.034-.465A2.2,2.2,0,0,1,705.4,35.1Z" transform="translate(-681.393 -30.592)"/>
  <path id="Path_248" data-name="Path 248" d="M706.822,36.36a2.2,2.2,0,0,1-1.2-2,2.253,2.253,0,0,1,.9-1.88Zm1.135-4.344a2.314,2.314,0,0,0-.887.176l.324,4.4a2.321,2.321,0,1,0,.563-4.572Z" transform="translate(-681.614 -29.857)" fill="url(#linear-gradient)"/>
  <path id="Path_249" data-name="Path 249" d="M656.541,53.758a3.027,3.027,0,0,1-2.284-.425h0a2.756,2.756,0,0,1-.618-1.043s-.894-2.742-1.268-3.9a3.067,3.067,0,0,1-1.522-.145,1,1,0,0,1-.425-1.283l.329-.662a1.374,1.374,0,0,1,.165-.264c-.2.038-.354.154-.514.475l-.329.663a1,1,0,0,0,.425,1.283,3.067,3.067,0,0,0,1.522.145c.374,1.154,1.268,3.9,1.268,3.9a2.756,2.756,0,0,0,.618,1.043h0a3.029,3.029,0,0,0,2.284.425,2.493,2.493,0,0,0,1.172-.441A3.065,3.065,0,0,1,656.541,53.758Z" transform="translate(-649.986 -37.828)"/>
  <path id="Path_250" data-name="Path 250" d="M663.595,43.223c.1-.235.2-.479.305-.73.178-.421,2.491-7.212,2.911-8.348a1.922,1.922,0,0,1,.929-1.088,2.745,2.745,0,0,0-1.278,1.3c-.419,1.135-2.732,7.927-2.91,8.348l-.071.169Z" transform="translate(-657.657 -30.449)"/>
  <path id="Path_251" data-name="Path 251" d="M652.673,47.6c-.06-.19-.214-.68-.356-1.267-.154-.636-.186-.734-.42-.829-.292.006-.483.085-.685.492l-.329.662a1,1,0,0,0,.425,1.283,3.067,3.067,0,0,0,1.522.145C652.747,47.836,652.69,47.658,652.673,47.6Z" transform="translate(-650.445 -37.528)" fill="url(#linear-gradient-2)"/>
  <path id="Path_252" data-name="Path 252" d="M654.126,47.6c-.06-.19-.214-.68-.356-1.267-.155-.638-.186-.735-.421-.829.326.457.11,1.916.012,2.591a3.54,3.54,0,0,0,.922-.007h0C654.2,47.835,654.143,47.657,654.126,47.6Z" transform="translate(-651.898 -37.527)" opacity="0.2"/>
  <path id="Path_253" data-name="Path 253" d="M657.835,50.3c-.483-1.487-1.136-3.5-1.182-3.644-.21-.668-.362-1.149-1.733-1.149h-1.571c.235.095.266.192.421.829.142.587.3,1.077.356,1.267.091.289,1.425,4.383,1.425,4.383a2.755,2.755,0,0,0,.618,1.043A6.952,6.952,0,0,0,657.835,50.3Z" transform="translate(-651.898 -37.527)" fill="url(#linear-gradient-3)"/>
  <g id="Group_108" data-name="Group 108" transform="translate(4.271 10.925)">
    <path id="Path_254" data-name="Path 254" d="M659.883,56.91a6.94,6.94,0,0,0,1.666-2.731l-.6-1.849C661.231,55.595,659.884,56.909,659.883,56.91Z" transform="translate(-659.883 -52.33)" opacity="0.2"/>
    <path id="Path_255" data-name="Path 255" d="M659.883,62.943Z" transform="translate(-659.883 -58.363)" opacity="0.2"/>
  </g>
  <path id="Path_256" data-name="Path 256" d="M667.282,35.436a1.473,1.473,0,0,1-1.588-2.379,1.922,1.922,0,0,0-.929,1.088c-.42,1.135-2.732,7.927-2.911,8.348a8.919,8.919,0,0,1-1.972,3.461,3.028,3.028,0,0,0,2.284.425,2.43,2.43,0,0,0,2.139-1.884c.225-.618,2.378-6.862,3.166-9.145A1.49,1.49,0,0,1,667.282,35.436Z" transform="translate(-655.612 -30.449)" fill="url(#linear-gradient-4)"/>
  <path id="Path_257" data-name="Path 257" d="M674.62,35.166a1.074,1.074,0,0,1-.928-1.926,1.074,1.074,0,1,0,.975,1.906Z" transform="translate(-663.086 -30.553)"/>
  <ellipse id="Ellipse_6" data-name="Ellipse 6" cx="1.074" cy="1.074" rx="1.074" ry="1.074" transform="matrix(0.738, -0.675, 0.675, 0.738, 9.65, 3.535)" fill="url(#linear-gradient-5)"/>
  <path id="Path_258" data-name="Path 258" d="M684.433,31.473a.6.6,0,0,1-.413-.784,2.033,2.033,0,0,0-.864-2.391.621.621,0,0,1-.029-1.042.609.609,0,0,0-.308.233.621.621,0,0,0,.188.883,2.033,2.033,0,0,1,.864,2.391.617.617,0,0,0,.93.7A.614.614,0,0,1,684.433,31.473Z" transform="translate(-668.587 -27.151)"/>
  <path id="Path_259" data-name="Path 259" d="M685.376,28.776a3.164,3.164,0,0,1,.019,2.139.616.616,0,0,1-.766.42.6.6,0,0,1-.413-.784,2.033,2.033,0,0,0-.864-2.391.62.62,0,1,1,.706-1.015A3.559,3.559,0,0,1,685.376,28.776Z" transform="translate(-668.782 -27.014)" fill="url(#linear-gradient-6)"/>
  <path id="Path_260" data-name="Path 260" d="M680,33.265a.615.615,0,0,1-.478-.749,1.227,1.227,0,0,0-.437-1.218.625.625,0,0,1-.1-.914.667.667,0,0,1,.12-.105.613.613,0,0,0-.268.18.625.625,0,0,0,.1.914,1.227,1.227,0,0,1,.437,1.218.615.615,0,0,0,.478.749.6.6,0,0,0,.466-.093A.609.609,0,0,1,680,33.265Z" transform="translate(-666.294 -28.869)"/>
  <path id="Path_261" data-name="Path 261" d="M680.87,31.381a2.236,2.236,0,0,1,.056,1.243.621.621,0,0,1-.734.5.615.615,0,0,1-.478-.749,1.227,1.227,0,0,0-.437-1.218.622.622,0,1,1,.817-.93A2.643,2.643,0,0,1,680.87,31.381Z" transform="translate(-666.49 -28.733)" fill="url(#linear-gradient-7)"/>
  <path id="Path_262" data-name="Path 262" d="M738.686,45.28a.654.654,0,0,0-.66.6v5.461c0,.131.016.421-.154.421-.1,0-.206-.233-.246-.326l-1.976-4.706a2.682,2.682,0,0,0-.583-1.058,1.294,1.294,0,0,0-1.915.081,1.881,1.881,0,0,0-.386,1.232v5.748h0a.658.658,0,0,0,1.311,0h0V47.181a.385.385,0,0,1,.107-.33c.13-.09.229.126.269.214l2,4.825a3.324,3.324,0,0,0,.244.6,1.8,1.8,0,0,0,.34.457,1.3,1.3,0,0,0,.467.289,1.288,1.288,0,0,0,1.453-.37,1.955,1.955,0,0,0,.391-1.244v-5.74A.655.655,0,0,0,738.686,45.28Z" transform="translate(-697.044 -37.397)"/>
  <path id="Path_263" data-name="Path 263" d="M755.76,51.758H753.3c-.691,0-1.077-.035-1.384-.445a3.38,3.38,0,0,1-.461-2,3.376,3.376,0,0,1,.466-2.011c.311-.41.7-.5,1.379-.5h2.464a.763.763,0,0,0,0-1.521H753.3a2.9,2.9,0,0,0-2.372,1,4.707,4.707,0,0,0-.822,3.038,4.683,4.683,0,0,0,.822,3.025,2.9,2.9,0,0,0,2.372,1h2.464a.754.754,0,0,0,.7-.76A.809.809,0,0,0,755.76,51.758Z" transform="translate(-706.899 -37.397)"/>
  <g id="Group_109" data-name="Group 109" transform="translate(50.261 7.883)">
    <path id="Path_264" data-name="Path 264" d="M771.737,56.033h-3.506c-.126,0-.145-.047-.145-.131V54.281c0-.114.039-.159.154-.159h3.014a.663.663,0,0,0,0-1.318V52.79c-.077-.008-2.572.006-4.29,0-.334,0-.507.173-.507.552,0,1.4,0,2.44,0,3.838,0,.29.119.424.444.424h4.831a.787.787,0,0,0,0-1.57Z" transform="translate(-766.457 -49.548)"/>
    <path id="Path_265" data-name="Path 265" d="M766.964,47.622c.353,0,.74,0,1.131,0v-.807h3.641a.77.77,0,0,0,0-1.535h-4.568a.711.711,0,0,0-.711.711v2.144h0C766.47,47.783,766.642,47.622,766.964,47.622Z" transform="translate(-766.457 -45.28)"/>
  </g>
  <path id="Path_266" data-name="Path 266" d="M694.452,49.855a1.965,1.965,0,0,0,1.182-.782,2.207,2.207,0,0,0,.258-.694,3.41,3.41,0,0,0,.083-.747,3.171,3.171,0,0,0-.129-.905,2.08,2.08,0,0,0-.4-.759,1.973,1.973,0,0,0-.7-.517,2.418,2.418,0,0,0-1.011-.171h-3.083c-.69,0-.681.707-.681.918v1.937h0c.012-.352.184-.513.506-.513.353,0,.627,0,1.018,0v-.807h2.216a.761.761,0,0,1,.761.761v.186a.761.761,0,0,1-.761.761h-2.651c-1.164,0-1.094-.037-1.094,1.533v2.672c0,.336.441.608.778.608s.735-.272.735-.608V50.054q0-.2.175-.2h.9a.39.39,0,0,1,.413.259c.047.1,1.247,2.334,1.343,2.528,0,.006,0,.011.006.017.176.351.422.682.828.676.373-.005.785-.363.637-.676h0l-.02-.041c-.05-.107-.094-.2-.134-.276-.324-.666-1.2-2.287-1.233-2.355A.087.087,0,0,1,694.452,49.855Z" transform="translate(-672.714 -37.397)"/>
  <path id="Path_267" data-name="Path 267" d="M679.206,52.633h0l-2.1-6.416a1.435,1.435,0,0,0-.533-.781,1.255,1.255,0,0,0-1.433,0,1.47,1.47,0,0,0-.543.781l-2.181,6.419c-.117.345.22.655.584.66a.943.943,0,0,0,.848-.66l1.947-5.76c.03-.1.072-.1.1,0l.953,2.939H675.71l-.442,1.311h2.008l.489,1.506h0a.948.948,0,0,0,.854.664C678.985,53.292,679.324,52.98,679.206,52.633Z" transform="translate(-662.724 -37.359)"/>
  <path id="Path_268" data-name="Path 268" d="M722.356,52.633h0l-2.1-6.416a1.435,1.435,0,0,0-.533-.781,1.255,1.255,0,0,0-1.433,0,1.467,1.467,0,0,0-.543.781l-2.181,6.419c-.117.345.22.655.584.66a.943.943,0,0,0,.848-.66l1.947-5.76c.03-.1.073-.1.1,0L720,49.816H718.86l-.442,1.311h2.008l.489,1.506h0a.948.948,0,0,0,.854.664C722.136,53.292,722.474,52.98,722.356,52.633Z" transform="translate(-687.254 -37.359)"/>
</svg>
