<svg id="Group_34460" data-name="Group 34460" xmlns="http://www.w3.org/2000/svg" width="132.462" height="38.114" viewBox="0 0 132.462 38.114">
  <path id="Path_244" data-name="Path 244" d="M704.929,64.243h5.129l-1.377-18.952h-2.374Z" transform="translate(-649.114 -26.723)" fill="#fff"/>
  <path id="Path_245" data-name="Path 245" d="M715.2,45.291h-5.264l1.377,18.952h2.509Z" transform="translate(-649.034 -26.723)" fill="#fff"/>
  <path id="Path_246" data-name="Path 246" d="M711.142,32.016h-.052a5.462,5.462,0,1,1-1.354,10.763l.078,1.044a5.979,5.979,0,1,0,1.328-11.808Z" transform="translate(-649.037 -26.934)" fill="#fff"/>
  <path id="Path_247" data-name="Path 247" d="M705.63,37.521a5.368,5.368,0,0,1,1.847-4.212,5.977,5.977,0,0,0,1.037,10l-.081-1.1A5.172,5.172,0,0,1,705.63,37.521Z" transform="translate(-649.109 -26.914)" fill="#fff"/>
  <path id="Path_248" data-name="Path 248" d="M708.444,42.243a5.168,5.168,0,0,1-2.82-4.7,5.3,5.3,0,0,1,2.126-4.426Zm2.671-10.227a5.448,5.448,0,0,0-2.088.414l.762,10.348a5.463,5.463,0,1,0,1.326-10.762Z" transform="translate(-649.103 -26.934)" fill="#fff"/>
  <path id="Path_249" data-name="Path 249" d="M665.416,64.212c-1.166.221-4.257.247-5.376-1l0,0a6.49,6.49,0,0,1-1.456-2.456s-2.1-6.455-2.985-9.172a7.221,7.221,0,0,1-3.584-.342,2.353,2.353,0,0,1-1-3.02l.775-1.559a3.233,3.233,0,0,1,.389-.622c-.474.089-.833.363-1.209,1.118-.176.353-.775,1.56-.775,1.56a2.354,2.354,0,0,0,1,3.02,7.219,7.219,0,0,0,3.583.341c.881,2.716,2.986,9.173,2.986,9.173a6.488,6.488,0,0,0,1.456,2.456l0,0c1.117,1.246,4.21,1.221,5.376,1a5.868,5.868,0,0,0,2.759-1.037A7.215,7.215,0,0,1,665.416,64.212Z" transform="translate(-649.986 -26.712)" fill="#fff"/>
  <path id="Path_250" data-name="Path 250" d="M663.748,56.989c.232-.554.469-1.127.719-1.719.42-.99,5.864-16.978,6.852-19.651a4.525,4.525,0,0,1,2.187-2.562,6.464,6.464,0,0,0-3.008,3.06c-.987,2.673-6.432,18.661-6.851,19.651l-.167.4Z" transform="translate(-649.771 -26.918)" fill="#fff"/>
  <path id="Path_251" data-name="Path 251" d="M655.219,50.443c-.141-.447-.5-1.6-.838-2.983-.364-1.5-.438-1.729-.988-1.951-.688.015-1.138.2-1.613,1.158-.175.353-.775,1.559-.775,1.559a2.353,2.353,0,0,0,1,3.02,7.22,7.22,0,0,0,3.584.342C655.393,50.987,655.258,50.567,655.219,50.443Z" transform="translate(-649.973 -26.72)" fill="#fff"/>
  <path id="Path_252" data-name="Path 252" d="M655.179,50.443c-.141-.447-.5-1.6-.838-2.983-.365-1.5-.439-1.73-.991-1.952.768,1.075.258,4.51.029,6.1a8.334,8.334,0,0,0,2.17-.017h0C655.353,50.987,655.217,50.567,655.179,50.443Z" transform="translate(-649.932 -26.72)" fill="#fff" opacity="0.2"/>
  <path id="Path_253" data-name="Path 253" d="M663.909,56.791c-1.137-3.5-2.675-8.238-2.783-8.579-.494-1.574-.853-2.7-4.08-2.7h-3.7c.553.222.627.451.991,1.952.335,1.382.7,2.536.838,2.983.213.68,3.354,10.318,3.354,10.318a6.486,6.486,0,0,0,1.456,2.456C661.774,61.692,662.783,59.475,663.909,56.791Z" transform="translate(-649.932 -26.72)" fill="#fff"/>
  <g id="Group_108" data-name="Group 108" transform="translate(10.054 25.718)">
    <path id="Path_254" data-name="Path 254" d="M659.883,63.111c1.787-1.526,2.8-3.742,3.922-6.428l-1.414-4.353C663.056,60.016,659.885,63.109,659.883,63.111Z" transform="translate(-659.883 -52.33)" fill="#fff" opacity="0.2"/>
    <path id="Path_255" data-name="Path 255" d="M659.883,62.943Z" transform="translate(-659.883 -52.162)" fill="#fff" opacity="0.2"/>
  </g>
  <path id="Path_256" data-name="Path 256" d="M677.3,38.659a3.467,3.467,0,0,1-3.738-5.6,4.526,4.526,0,0,0-2.187,2.562c-.988,2.673-6.433,18.661-6.852,19.651-1.464,3.462-2.487,6.308-4.642,8.147,1.119,1.247,4.21,1.222,5.376,1s3.571-.413,5.036-4.435c.53-1.456,5.6-16.154,7.453-21.527A3.512,3.512,0,0,1,677.3,38.659Z" transform="translate(-649.828 -26.918)" fill="#fff"/>
  <path id="Path_257" data-name="Path 257" d="M676.772,37.774a2.529,2.529,0,0,1-2.185-4.534,2.528,2.528,0,1,0,2.3,4.487C676.847,37.742,676.81,37.76,676.772,37.774Z" transform="translate(-649.62 -26.915)" fill="#fff"/>
  <ellipse id="Ellipse_6" data-name="Ellipse 6" cx="2.529" cy="2.529" rx="2.529" ry="2.529" transform="matrix(0.738, -0.675, 0.675, 0.738, 22.717, 8.321)" fill="#fff"/>
  <path id="Path_258" data-name="Path 258" d="M686.77,37.183a1.422,1.422,0,0,1-.972-1.845,4.786,4.786,0,0,0-2.035-5.629,1.463,1.463,0,0,1-.068-2.453,1.434,1.434,0,0,0-.725.55,1.462,1.462,0,0,0,.443,2.078,4.787,4.787,0,0,1,2.035,5.629,1.452,1.452,0,0,0,2.188,1.657A1.446,1.446,0,0,1,686.77,37.183Z" transform="translate(-649.466 -27.01)" fill="#fff"/>
  <path id="Path_259" data-name="Path 259" d="M688.524,31.162a7.447,7.447,0,0,1,.045,5.036,1.451,1.451,0,0,1-1.8.989,1.422,1.422,0,0,1-.972-1.845,4.787,4.787,0,0,0-2.035-5.629,1.459,1.459,0,1,1,1.662-2.39A8.379,8.379,0,0,1,688.524,31.162Z" transform="translate(-649.461 -27.014)" fill="#fff"/>
  <path id="Path_260" data-name="Path 260" d="M681.787,37.309a1.448,1.448,0,0,1-1.126-1.764,2.889,2.889,0,0,0-1.029-2.868,1.472,1.472,0,0,1-.245-2.152,1.568,1.568,0,0,1,.282-.248,1.442,1.442,0,0,0-.632.423,1.472,1.472,0,0,0,.245,2.152,2.889,2.889,0,0,1,1.029,2.868,1.448,1.448,0,0,0,1.125,1.764,1.408,1.408,0,0,0,1.1-.218A1.433,1.433,0,0,1,681.787,37.309Z" transform="translate(-649.53 -26.962)" fill="#fff"/>
  <path id="Path_261" data-name="Path 261" d="M683.378,33.2a5.265,5.265,0,0,1,.131,2.926,1.463,1.463,0,0,1-1.728,1.189,1.448,1.448,0,0,1-1.126-1.764,2.889,2.889,0,0,0-1.029-2.868,1.463,1.463,0,1,1,1.923-2.188A6.223,6.223,0,0,1,683.378,33.2Z" transform="translate(-649.525 -26.966)" fill="#fff"/>
  <path id="Path_262" data-name="Path 262" d="M746.7,45.28a1.54,1.54,0,0,0-1.554,1.421V59.558c0,.309.037.99-.363.99-.232,0-.484-.549-.579-.767L739.556,48.7a6.312,6.312,0,0,0-1.373-2.491,3.047,3.047,0,0,0-4.508.19,4.428,4.428,0,0,0-.908,2.9V62.834h0a1.55,1.55,0,0,0,3.086,0h0V49.755a.907.907,0,0,1,.251-.776c.307-.211.538.3.634.5l4.706,11.357a7.829,7.829,0,0,0,.574,1.416,4.243,4.243,0,0,0,.8,1.075,3.067,3.067,0,0,0,1.1.681,3.032,3.032,0,0,0,3.42-.871,4.6,4.6,0,0,0,.92-2.928V46.7A1.542,1.542,0,0,0,746.7,45.28Z" transform="translate(-648.672 -26.724)" fill="#fff"/>
  <path id="Path_263" data-name="Path 263" d="M763.42,60.529h-5.8c-1.627,0-2.536-.083-3.259-1.047a7.957,7.957,0,0,1-1.085-4.706,7.946,7.946,0,0,1,1.1-4.734c.731-.965,1.637-1.181,3.247-1.181h5.8a1.8,1.8,0,0,0,0-3.581h-5.8a6.825,6.825,0,0,0-5.583,2.346q-1.935,2.347-1.935,7.151,0,4.776,1.935,7.121a6.822,6.822,0,0,0,5.583,2.346h5.8a1.775,1.775,0,0,0,1.658-1.79A1.905,1.905,0,0,0,763.42,60.529Z" transform="translate(-648.397 -26.724)" fill="#fff"/>
  <g id="Group_109" data-name="Group 109" transform="translate(118.32 18.556)">
    <path id="Path_264" data-name="Path 264" d="M778.886,60.428h0l-8.254,0c-.3,0-.34-.11-.34-.309V56.3c0-.269.092-.375.362-.375h7.1v0a1.561,1.561,0,0,0,0-3.1v-.03c-.182-.019-6.054.015-10.1,0-.786,0-1.194.406-1.194,1.3.011,3.29.006,5.745.008,9.035,0,.683.28,1,1.045,1h11.374a1.853,1.853,0,0,0,0-3.7Z" transform="translate(-766.457 -45.161)" fill="#fff"/>
    <path id="Path_265" data-name="Path 265" d="M767.651,50.794c.832,0,1.742,0,2.663,0v-1.9h8.571a1.812,1.812,0,0,0,0-3.613H768.13a1.673,1.673,0,0,0-1.673,1.673V52h0C766.486,51.172,766.892,50.794,767.651,50.794Z" transform="translate(-766.457 -45.28)" fill="#fff"/>
  </g>
  <path id="Path_266" data-name="Path 266" d="M700.523,56.049a4.626,4.626,0,0,0,2.781-1.84,5.193,5.193,0,0,0,.607-1.634,8.021,8.021,0,0,0,.2-1.757,7.47,7.47,0,0,0-.3-2.131,4.9,4.9,0,0,0-.948-1.786,4.642,4.642,0,0,0-1.64-1.218,5.692,5.692,0,0,0-2.38-.4h-7.258c-1.625,0-1.6,1.664-1.6,2.161V52h0c.028-.829.433-1.207,1.192-1.207.832,0,1.475,0,2.4,0v-1.9h5.218a1.791,1.791,0,0,1,1.791,1.791v.437a1.791,1.791,0,0,1-1.791,1.791h-6.24c-2.741,0-2.574-.086-2.574,3.608v6.29c0,.791,1.039,1.432,1.832,1.432s1.731-.641,1.731-1.432V56.52c0-.314.137-.47.412-.47h2.111a.919.919,0,0,1,.972.611c.11.226,2.936,5.494,3.162,5.952.006.013.009.026.015.04.413.827.995,1.606,1.95,1.592.879-.012,1.849-.855,1.5-1.592h0l-.047-.1c-.119-.251-.22-.468-.316-.65-.763-1.567-2.825-5.384-2.9-5.544A.2.2,0,0,1,700.523,56.049Z" transform="translate(-649.351 -26.724)" fill="#fff"/>
  <path id="Path_267" data-name="Path 267" d="M688.43,62.682h0l-4.942-15.1a3.377,3.377,0,0,0-1.255-1.838,2.954,2.954,0,0,0-3.373,0,3.46,3.46,0,0,0-1.279,1.838L672.45,62.691c-.276.813.517,1.541,1.375,1.553a2.22,2.22,0,0,0,2-1.553l4.583-13.56c.07-.237.17-.237.236,0l2.243,6.919H680.2l-1.041,3.086h4.728l1.15,3.545h0a2.231,2.231,0,0,0,2.01,1.562C687.911,64.232,688.707,63.5,688.43,62.682Z" transform="translate(-649.63 -26.725)" fill="#fff"/>
  <path id="Path_268" data-name="Path 268" d="M731.58,62.682h0l-4.942-15.1a3.377,3.377,0,0,0-1.255-1.838,2.954,2.954,0,0,0-3.373,0,3.453,3.453,0,0,0-1.278,1.838L715.6,62.691c-.275.813.517,1.541,1.375,1.553a2.22,2.22,0,0,0,2-1.553l4.584-13.56c.071-.237.171-.237.237,0l2.243,6.919h-2.687l-1.041,3.086h4.728l1.15,3.545h0a2.233,2.233,0,0,0,2.01,1.562C731.061,64.232,731.857,63.5,731.58,62.682Z" transform="translate(-648.945 -26.725)" fill="#fff"/>
</svg>
