<svg xmlns="http://www.w3.org/2000/svg" width="13.732" height="16" viewBox="0 0 13.732 16">
  <g id="profits" transform="translate(-35.038)">
    <g id="Group_33129" data-name="Group 33129" transform="translate(42.351 4.108)">
      <g id="Group_33128" data-name="Group 33128" transform="translate(0)">
        <path id="Path_273" data-name="Path 273" d="M265.985,132.934V127.2a.306.306,0,0,0-.324-.3h-1.253a.315.315,0,0,0-.333.3v5.173a3.021,3.021,0,0,0-.615.081v-3.564a.317.317,0,0,0-.33-.307h-1.253a.312.312,0,0,0-.327.307v4.833a3.178,3.178,0,0,0-.589,1.858,3.209,3.209,0,1,0,5.024-2.648Zm-1.262-5.386h.615v5.043a2.886,2.886,0,0,0-.615-.168Zm-2.525,1.683h.615v3.447a3.3,3.3,0,0,0-.615.369Zm4.179,7.655a2.561,2.561,0,1,1-3.182-3.671.308.308,0,0,0,.107-.042,2.512,2.512,0,0,1,.874-.155c.068,0,.133,0,.2.01h0a2.5,2.5,0,0,1,1.1.35A2.56,2.56,0,0,1,266.377,136.886Z" transform="translate(-260.962 -126.9)" fill="#fd8b25"/>
      </g>
    </g>
    <g id="Group_33131" data-name="Group 33131" transform="translate(44.513 10.539)">
      <g id="Group_33130" data-name="Group 33130">
        <path id="Path_274" data-name="Path 274" d="M328.813,327.587a.41.41,0,1,1,.4-.411.325.325,0,0,0,.324.324.328.328,0,0,0,.33-.324,1.057,1.057,0,0,0-.67-.984v-.269a.324.324,0,1,0-.647,0v.233a1.056,1.056,0,0,0-.757,1.285,1.042,1.042,0,0,0,1.013.79.406.406,0,1,1-.408.4.325.325,0,0,0-.324-.324.314.314,0,0,0-.317.32v0a1.06,1.06,0,0,0,.79,1.02v.146a.324.324,0,0,0,.647,0v-.178a1.054,1.054,0,0,0-.385-2.036Z" transform="translate(-327.761 -325.6)" fill="#fd8b25"/>
      </g>
    </g>
    <g id="Group_33133" data-name="Group 33133" transform="translate(37.858 8.38)">
      <g id="Group_33132" data-name="Group 33132" transform="translate(0)">
        <path id="Path_275" data-name="Path 275" d="M123.749,258.9h-1.262a.325.325,0,0,0-.324.324v5.082a.325.325,0,0,0,.324.324h1.262a.325.325,0,0,0,.324-.324v-5.082A.325.325,0,0,0,123.749,258.9Zm-.324,5.114h-.615v-4.467h.615Z" transform="translate(-122.163 -258.9)" fill="#fd8b25"/>
      </g>
    </g>
    <g id="Group_33135" data-name="Group 33135" transform="translate(40.415 7.636)">
      <g id="Group_33134" data-name="Group 33134" transform="translate(0)">
        <path id="Path_276" data-name="Path 276" d="M202.749,235.9h-1.262a.325.325,0,0,0-.324.324v5.859a.325.325,0,0,0,.324.324h1.262a.325.325,0,0,0,.324-.324v-5.859A.325.325,0,0,0,202.749,235.9Zm-.324,5.859h-.615v-5.211h.615Z" transform="translate(-201.163 -235.9)" fill="#fd8b25"/>
      </g>
    </g>
    <g id="Group_33137" data-name="Group 33137" transform="translate(35.301 11.164)">
      <g id="Group_33136" data-name="Group 33136" transform="translate(0)">
        <path id="Path_277" data-name="Path 277" d="M44.749,344.9H43.487a.325.325,0,0,0-.324.324v2.3a.325.325,0,0,0,.324.324h1.262a.325.325,0,0,0,.324-.324v-2.3A.325.325,0,0,0,44.749,344.9Zm-.324,2.331H43.81v-1.683h.615Z" transform="translate(-43.163 -344.9)" fill="#fd8b25"/>
      </g>
    </g>
    <g id="Group_33139" data-name="Group 33139" transform="translate(35.038)">
      <g id="Group_33138" data-name="Group 33138" transform="translate(0)">
        <path id="Path_278" data-name="Path 278" d="M47.326,0,45.112,0a.324.324,0,1,0-.006.647h.006l1.434,0-3.512,3.5L41.807,2.929a.356.356,0,0,0-.46,0L35.133,9.144a.323.323,0,0,0,.46.453l5.988-5.988,1.227,1.236a.324.324,0,0,0,.23.1.344.344,0,0,0,.23-.1L47,1.107l0,1.44a.324.324,0,1,0,.647,0l0-2.221A.327.327,0,0,0,47.326,0Z" transform="translate(-35.038)" fill="#fd8b25"/>
      </g>
    </g>
  </g>
</svg>
