<svg xmlns="http://www.w3.org/2000/svg" width="10.563" height="16" viewBox="0 0 10.563 16">
  <path id="smartphone_2_" data-name="smartphone (2)" d="M-1.012,13.531a.625.625,0,0,1-.625.625.625.625,0,0,1-.625-.625.625.625,0,0,1,.625-.625A.625.625,0,0,1-1.012,13.531ZM3.645,1.875v12.25A1.877,1.877,0,0,1,1.77,16H-5.043a1.877,1.877,0,0,1-1.875-1.875V1.875A1.877,1.877,0,0,1-5.043,0H1.77A1.877,1.877,0,0,1,3.645,1.875Zm-9.313,0V11H2.395V1.875A.626.626,0,0,0,1.77,1.25H-5.043A.626.626,0,0,0-5.668,1.875Zm8.063,12.25V12.25H-5.668v1.875a.626.626,0,0,0,.625.625H1.77A.626.626,0,0,0,2.395,14.125Zm0,0" transform="translate(6.918)" fill="#fd8b25"/>
</svg>
